<?xml version="1.0" encoding="windows-1252"?>
<!-- Generator: Adobe Illustrator 16.0.0, SVG Export Plug-In . SVG Version: 6.00 Build 0)  -->
<!DOCTYPE svg PUBLIC "-//W3C//DTD SVG 1.1//EN" "http://www.w3.org/Graphics/SVG/1.1/DTD/svg11.dtd">
<svg version="1.1" id="Capa_1" xmlns="http://www.w3.org/2000/svg" xmlns:xlink="http://www.w3.org/1999/xlink" x="0px" y="0px" width="89.534px" height="89.535px" viewBox="0 0 89.534 89.535" style="enable-background:new 0 0 89.534 89.535;" xml:space="preserve">
<g>
	<path d="M12.241,88.083v-7.84h65.053v7.84c0,0.762,0.616,1.377,1.377,1.377s1.377-0.615,1.377-1.377v-8.107h8.109   c0.761,0,1.377-0.617,1.377-1.377c0-0.761-0.616-1.377-1.377-1.377h-8.109V12.313h8.109c0.761,0,1.377-0.617,1.377-1.377   c0-0.762-0.616-1.377-1.377-1.377h-8.109V1.451c0-0.761-0.616-1.377-1.377-1.377s-1.377,0.616-1.377,1.377V9.56H12.241V1.451   c0-0.761-0.616-1.377-1.377-1.377c-0.761,0-1.377,0.616-1.377,1.377V9.56h-8.11C0.616,9.56,0,10.175,0,10.937   c0,0.76,0.616,1.377,1.377,1.377h7.985v64.909H1.377C0.616,77.222,0,77.837,0,78.599c0,0.76,0.616,1.377,1.377,1.377h8.109v8.106   c0,0.761,0.616,1.377,1.377,1.377C11.624,89.459,12.241,88.845,12.241,88.083z M12.179,33.272V12.313h21.113v20.959H12.179z    M34.21,33.272V12.313h21.052v20.959H34.21z M56.242,33.272V12.313h21.052v20.959H56.242z M12.179,55.306V34.19h21.113v21.114   H12.179V55.306z M34.211,55.306V34.191h21.053v21.115H34.211L34.211,55.306z M56.242,55.306V34.191h21.052v21.115H56.242   L56.242,55.306z M12.179,77.336V56.224h21.114v21.112H12.179z M34.211,77.336V56.224h21.053v21.112H34.211z M56.242,77.336V56.224   h21.052v21.112H56.242z M13.767,75.625V58.292h17.332v17.332H13.767z"/>
</g>
<g>
</g>
<g>
</g>
<g>
</g>
<g>
</g>
<g>
</g>
<g>
</g>
<g>
</g>
<g>
</g>
<g>
</g>
<g>
</g>
<g>
</g>
<g>
</g>
<g>
</g>
<g>
</g>
<g>
</g>
</svg>